<svg width="32" height="32" viewBox="0 0 32 32" fill="none" xmlns="http://www.w3.org/2000/svg">
<path d="M15.3337 15.5023C15.1059 15.5023 14.8872 15.4117 14.7261 15.2505L12.4058 12.9302C12.0701 12.5948 12.0701 12.0505 12.4058 11.715C12.7412 11.3793 13.2855 11.3793 13.621 11.715L15.3337 13.4275L18.45 10.3112C18.7855 9.97568 19.3298 9.97568 19.6652 10.3112C20.0009 10.6468 20.0009 11.1909 19.6652 11.5266L15.9413 15.2505C15.7802 15.4117 15.5615 15.5023 15.3337 15.5023Z" fill="#7B8E98"/>
<path fill-rule="evenodd" clip-rule="evenodd" d="M16.0354 5.25112C11.8835 5.25112 8.50555 8.62887 8.50555 12.7809C8.50555 16.933 11.8835 20.3108 16.0354 20.3108C20.1875 20.3108 23.5654 16.933 23.5654 12.7809C23.5654 8.62887 20.1875 5.25112 16.0354 5.25112ZM16.0354 18.592C12.8313 18.592 10.2243 15.9853 10.2243 12.7809C10.2243 9.57664 12.8313 6.96987 16.0354 6.96987C19.2397 6.96987 21.8467 9.57664 21.8467 12.7809C21.8467 15.9853 19.2397 18.592 16.0354 18.592Z" fill="#7B8E98"/>
<path fill-rule="evenodd" clip-rule="evenodd" d="M27.309 14.7686C27.4292 14.0881 27.3226 13.3901 27.0163 12.7809C27.3226 12.1717 27.4289 11.4737 27.309 10.7929C27.189 10.1123 26.8504 9.49288 26.3541 9.02515C26.4337 8.34795 26.295 7.65575 25.9492 7.0571C25.6037 6.45845 25.0735 5.99206 24.4473 5.72238C24.2904 5.05883 23.9234 4.45593 23.3939 4.01147C22.8642 3.56724 22.2067 3.31032 21.5259 3.27116C21.1515 2.70115 20.6003 2.26005 19.9506 2.02372C19.3012 1.78739 18.5953 1.77083 17.9423 1.96688C17.3955 1.55935 16.7266 1.33331 16.0353 1.33331C15.3442 1.33331 14.6753 1.55935 14.1286 1.96688C13.4755 1.77083 12.7697 1.78739 12.12 2.02372C11.4706 2.26027 10.9194 2.70137 10.5449 3.27116C9.86416 3.31054 9.20643 3.56724 8.67693 4.01147C8.14743 4.45593 7.7804 5.05883 7.62352 5.72261C6.99712 5.99228 6.46717 6.45845 6.12141 7.0571C5.77587 7.65575 5.63712 8.34795 5.71679 9.02515C5.22041 9.49288 4.88181 10.1123 4.76185 10.7929C4.64168 11.4737 4.7482 12.1717 5.05458 12.7809C4.7482 13.3901 4.64168 14.0881 4.76185 14.7686C4.88181 15.4494 5.22041 16.0689 5.71679 16.5366C5.63712 17.2138 5.77587 17.906 6.12141 18.5047C6.46717 19.1033 6.99734 19.5695 7.62352 19.8392C7.73005 20.2901 7.93393 20.7131 8.21971 21.0772L5.70202 26.3462C5.55991 26.6434 5.60042 26.9957 5.80586 27.2533C6.01153 27.5106 6.3461 27.6279 6.66747 27.5549L10.4599 26.6949L12.1733 30.1859C12.3176 30.4802 12.6171 30.6666 12.9447 30.6666H12.9492C13.2786 30.665 13.578 30.475 13.7202 30.1778L16.0353 25.3327L18.3507 30.1778C18.4926 30.475 18.792 30.6648 19.1214 30.6666H19.1261C19.4536 30.6666 19.753 30.4802 19.8976 30.1859L21.6109 26.6949L25.4032 27.5549C25.7245 27.6279 26.0591 27.5106 26.2648 27.2533C26.4704 26.9957 26.5107 26.6434 26.3686 26.3462L23.8509 21.0772C24.1367 20.7131 24.3406 20.2901 24.4471 19.8392C25.0735 19.5695 25.6037 19.1033 25.9492 18.5047C26.2948 17.906 26.4335 17.2138 26.3541 16.5366C26.8502 16.0689 27.189 15.4494 27.309 14.7686ZM25.3266 13.3097C25.5831 13.638 25.6885 14.061 25.6164 14.4703C25.5441 14.8796 25.3002 15.2408 24.9473 15.4617C24.6129 15.6707 24.4637 16.0805 24.5854 16.4556C24.7141 16.8517 24.6687 17.2852 24.4608 17.6453C24.2531 18.0052 23.9001 18.2614 23.4928 18.348C23.1072 18.4301 22.8268 18.7643 22.8129 19.1584C22.7982 19.5744 22.6073 19.9663 22.2888 20.2335C21.9704 20.5007 21.5514 20.6209 21.139 20.5629C20.7484 20.5079 20.3707 20.7263 20.223 21.0917C20.067 21.4778 19.7534 21.7808 19.3627 21.9229C18.9722 22.065 18.5373 22.0346 18.1696 21.8392C17.8212 21.6541 17.3917 21.7298 17.1279 22.0229C16.8493 22.3322 16.4509 22.5097 16.0353 22.5097C15.6197 22.5097 15.2214 22.3322 14.9427 22.0229C14.7753 21.837 14.5415 21.7387 14.304 21.7387C14.1668 21.7387 14.0285 21.7714 13.901 21.8392C13.5335 22.0346 13.0984 22.065 12.7079 21.9229C12.3174 21.7808 12.0039 21.4778 11.8477 21.0917C11.7 20.7263 11.3224 20.5083 10.9317 20.5629C10.5192 20.6206 10.1003 20.5007 9.7818 20.2335C9.46334 19.9663 9.27245 19.5744 9.25768 19.1584C9.2438 18.7643 8.96361 18.4301 8.57779 18.348C8.1707 18.2614 7.81778 18.0052 7.60987 17.6453C7.40219 17.2852 7.35676 16.8517 7.48522 16.4556C7.60696 16.0805 7.45769 15.6707 7.12334 15.4617C6.77042 15.2408 6.52648 14.8796 6.45442 14.4703C6.38213 14.061 6.48776 13.638 6.74401 13.3097C6.9866 12.9989 6.9866 12.5629 6.74401 12.2521C6.48776 11.9237 6.38213 11.5008 6.45442 11.0915C6.52648 10.6821 6.77042 10.3207 7.12334 10.1C7.45769 9.89102 7.60696 9.48125 7.48522 9.10617C7.35676 8.71005 7.40219 8.27656 7.60987 7.91647C7.81778 7.55661 8.17048 7.30036 8.57779 7.21375C8.96339 7.13162 9.2438 6.79749 9.25768 6.40339C9.27245 5.98736 9.46334 5.59549 9.7818 5.32828C10.1 5.06107 10.5192 4.94111 10.9317 4.99885C11.3222 5.05391 11.6997 4.83548 11.8477 4.4698C12.0039 4.08398 12.3174 3.78096 12.7079 3.63885C13.0984 3.49652 13.5333 3.52718 13.901 3.72255C14.2492 3.9074 14.6789 3.83176 14.9427 3.53881C15.2216 3.22953 15.6197 3.05206 16.0353 3.05206C16.4511 3.05206 16.8493 3.22953 17.1279 3.53881C17.392 3.83176 17.8214 3.90763 18.1696 3.72255C18.5373 3.52718 18.9724 3.49674 19.3629 3.63885C19.7534 3.78096 20.067 4.08398 20.223 4.47003C20.3709 4.83548 20.7487 5.05368 21.1392 4.99885C21.5514 4.94111 21.9706 5.06107 22.289 5.32828C22.6073 5.59549 22.7984 5.98736 22.8129 6.40339C22.827 6.79772 23.1072 7.13162 23.4931 7.21375C23.9001 7.30036 24.2531 7.55661 24.4608 7.91647C24.6687 8.27656 24.7141 8.71005 24.5856 9.10617C24.4639 9.48125 24.6129 9.89102 24.9473 10.1C25.3004 10.3209 25.5444 10.6824 25.6164 11.0915C25.6887 11.5008 25.5831 11.9237 25.3268 12.2521C25.084 12.5629 25.084 12.9989 25.3266 13.3097ZM21.3287 24.8685C20.9405 24.7806 20.5425 24.9706 20.3671 25.328L19.1364 27.8358L17.2895 23.9706C17.5204 23.8717 17.7397 23.7459 17.9423 23.5949C18.5953 23.7909 19.3012 23.7744 19.9508 23.538C20.6003 23.3017 21.1515 22.8604 21.5259 22.2906C21.8376 22.2727 22.144 22.2085 22.4359 22.1024L24.053 25.4864L21.3287 24.8685ZM11.7038 25.328C11.5569 25.0292 11.2546 24.8472 10.9326 24.8472C10.8694 24.8472 10.8057 24.8542 10.7421 24.8685L8.01785 25.4862L9.63499 22.1022C9.92682 22.2085 10.2334 22.2725 10.5449 22.2906C10.9194 22.8604 11.4706 23.3015 12.12 23.5378C12.7697 23.7744 13.4755 23.7907 14.1286 23.5949C14.3311 23.7457 14.5504 23.8717 14.7814 23.9704L12.9344 27.8356L11.7038 25.328Z" fill="#7B8E98"/>
</svg>
