<svg width="118" height="27" viewBox="0 0 118 27" fill="none" xmlns="http://www.w3.org/2000/svg">
<path d="M3.00599 20.5C2.21299 20.5 1.593 20.272 1.146 19.816C0.708996 19.352 0.48999 18.704 0.48999 17.875V3.39603C0.48999 2.56703 0.708996 1.92403 1.147 1.46903C1.593 1.00403 2.21299 0.77103 3.00599 0.77103H8.50199C11.501 0.77103 13.825 1.61503 15.475 3.30103C17.134 4.98703 17.963 7.39303 17.963 10.52C17.963 13.664 17.129 16.116 15.461 17.875C13.802 19.625 11.482 20.5 8.50199 20.5H3.00599V20.5ZM5.508 16.453H7.84599C9.48599 16.453 10.731 15.956 11.578 14.963C12.435 13.969 12.863 12.493 12.863 10.533C12.863 8.69303 12.426 7.27903 11.551 6.29503C10.676 5.31003 9.44099 4.81803 7.84599 4.81803H5.508V16.453ZM32.811 18.805C31.452 20.172 29.593 20.855 27.232 20.855C24.872 20.855 23.012 20.172 21.654 18.805C20.296 17.428 19.617 15.51 19.617 13.049C19.617 10.634 20.305 8.73303 21.682 7.34803C23.058 5.95303 24.908 5.25603 27.232 5.25603C29.575 5.25603 31.43 5.94903 32.797 7.33403C34.164 8.71903 34.848 10.624 34.848 13.049C34.848 15.519 34.169 17.438 32.811 18.805V18.805ZM25.25 16.193C25.733 16.932 26.394 17.301 27.232 17.301C28.071 17.301 28.732 16.931 29.215 16.193C29.698 15.455 29.939 14.411 29.939 13.063C29.939 11.732 29.693 10.693 29.201 9.94503C28.718 9.18903 28.062 8.81103 27.232 8.81103C26.403 8.81103 25.747 9.18903 25.264 9.94503C24.781 10.693 24.539 11.732 24.539 13.062C24.539 14.412 24.776 15.455 25.25 16.193V16.193ZM43.693 26.106C42.098 26.096 40.722 25.832 39.564 25.312C38.407 24.793 37.587 24.128 37.104 23.316C36.8948 22.9451 36.7862 22.5259 36.789 22.1C36.789 21.607 36.962 21.202 37.309 20.883C37.664 20.563 38.129 20.404 38.703 20.404C39.305 20.404 39.833 20.6 40.289 20.992C41.428 21.949 42.54 22.432 43.625 22.442C44.618 22.442 45.393 22.195 45.949 21.703C46.505 21.211 46.783 20.541 46.783 19.693V17.315H46.688C46.387 18.107 45.831 18.75 45.02 19.242C44.217 19.725 43.274 19.967 42.189 19.967C40.357 19.967 38.913 19.32 37.855 18.025C36.798 16.731 36.27 14.958 36.27 12.707C36.27 10.383 36.789 8.58303 37.828 7.30703C38.876 6.03103 40.353 5.39303 42.258 5.39303C43.315 5.39303 44.236 5.65303 45.02 6.17203C45.7843 6.66879 46.3763 7.38971 46.715 8.23603H46.811V7.73003C46.811 6.92803 47.034 6.32203 47.48 5.91203C47.936 5.50203 48.529 5.29703 49.258 5.29703C49.987 5.29703 50.566 5.50203 50.994 5.91203C51.432 6.32203 51.65 6.92803 51.65 7.73103V19.775C51.65 21.79 50.958 23.348 49.572 24.451C48.196 25.554 46.236 26.105 43.693 26.105V26.106ZM44.021 16.536C44.896 16.536 45.58 16.212 46.072 15.565C46.574 14.908 46.824 13.983 46.824 12.789C46.824 11.604 46.574 10.665 46.072 9.97303C45.571 9.27103 44.887 8.92003 44.021 8.92003C43.156 8.92003 42.472 9.26603 41.971 9.95903C41.479 10.652 41.232 11.595 41.232 12.789C41.232 13.983 41.474 14.909 41.957 15.565C42.449 16.212 43.137 16.535 44.021 16.535V16.536ZM58.691 20.117C58.254 20.573 57.639 20.801 56.846 20.801C56.053 20.801 55.433 20.573 54.986 20.117C54.549 19.661 54.33 19.019 54.33 18.19V3.39703C54.33 2.56703 54.549 1.92403 54.986 1.46903C55.433 1.00403 56.053 0.77103 56.846 0.77103H65.787C66.471 0.77103 67.013 0.949031 67.414 1.30503C67.815 1.66003 68.016 2.15703 68.016 2.79503C68.016 3.42403 67.811 3.92103 67.4 4.28503C66.999 4.64103 66.462 4.81803 65.787 4.81803H59.348V9.30303H65.145C65.783 9.30303 66.288 9.47603 66.662 9.82303C67.045 10.16 67.236 10.629 67.236 11.23C67.236 11.832 67.049 12.301 66.676 12.639C66.302 12.976 65.792 13.144 65.145 13.144H59.348V18.19C59.348 19.019 59.129 19.661 58.691 20.117V20.117ZM82.029 18.805C80.671 20.172 78.812 20.855 76.451 20.855C74.09 20.855 72.231 20.172 70.873 18.805C69.515 17.428 68.836 15.51 68.836 13.049C68.836 10.634 69.524 8.73303 70.9 7.34803C72.277 5.95303 74.127 5.25603 76.451 5.25603C78.794 5.25603 80.648 5.94903 82.016 7.33403C83.383 8.71903 84.066 10.624 84.066 13.049C84.066 15.519 83.387 17.438 82.029 18.805V18.805ZM74.469 16.193C74.952 16.932 75.613 17.301 76.451 17.301C77.29 17.301 77.951 16.931 78.434 16.193C78.917 15.455 79.158 14.411 79.158 13.063C79.158 11.732 78.912 10.693 78.42 9.94503C77.937 9.18903 77.281 8.81103 76.451 8.81103C75.622 8.81103 74.965 9.18903 74.482 9.94503C73.999 10.693 73.758 11.732 73.758 13.062C73.758 14.412 73.995 15.455 74.469 16.193V16.193ZM98.682 18.805C97.324 20.172 95.464 20.855 93.104 20.855C90.743 20.855 88.883 20.172 87.525 18.805C86.167 17.428 85.488 15.51 85.488 13.049C85.488 10.634 86.176 8.73303 87.553 7.34803C88.929 5.95303 90.779 5.25603 93.104 5.25603C95.446 5.25603 97.301 5.94903 98.668 7.33403C100.035 8.71903 100.719 10.624 100.719 13.049C100.719 15.519 100.04 17.438 98.682 18.805V18.805ZM91.121 16.193C91.604 16.932 92.265 17.301 93.104 17.301C93.942 17.301 94.603 16.931 95.086 16.193C95.569 15.455 95.811 14.411 95.811 13.063C95.811 11.732 95.564 10.693 95.072 9.94503C94.589 9.18903 93.933 8.81103 93.104 8.81103C92.274 8.81103 91.618 9.18903 91.135 9.94503C90.652 10.693 90.41 11.732 90.41 13.062C90.41 14.412 90.647 15.455 91.121 16.193V16.193ZM108.074 20.719C106.224 20.719 104.77 20.039 103.713 18.682C102.665 17.315 102.141 15.428 102.141 13.022C102.141 10.642 102.674 8.77903 103.74 7.43003C104.807 6.07203 106.27 5.39303 108.129 5.39303C109.186 5.39303 110.107 5.65303 110.891 6.17203C111.661 6.66294 112.254 7.38574 112.586 8.23603H112.682V2.97303C112.682 2.15303 112.9 1.52803 113.338 1.10003C113.775 0.671031 114.363 0.457031 115.102 0.457031C115.84 0.457031 116.428 0.671031 116.865 1.10003C117.303 1.52803 117.521 2.15203 117.521 2.97303V18.326C117.521 19.137 117.303 19.757 116.865 20.186C116.428 20.605 115.84 20.815 115.102 20.815C114.372 20.815 113.785 20.605 113.338 20.185C112.9 19.757 112.682 19.137 112.682 18.326V17.902H112.586C112.294 18.732 111.743 19.411 110.932 19.94C110.13 20.459 109.177 20.719 108.074 20.719V20.719ZM107.842 15.906C108.334 16.59 109.018 16.932 109.893 16.932C110.768 16.932 111.451 16.59 111.943 15.906C112.445 15.223 112.695 14.275 112.695 13.063C112.695 11.868 112.445 10.925 111.943 10.233C111.442 9.53103 110.758 9.18003 109.893 9.18003C109.027 9.18003 108.343 9.52603 107.842 10.219C107.35 10.911 107.104 11.859 107.104 13.062C107.104 14.266 107.35 15.214 107.842 15.906Z" fill="#1A1A1A"/>
</svg>
