<svg width="18" height="24" viewBox="0 0 18 24" fill="none" xmlns="http://www.w3.org/2000/svg">
<path fill-rule="evenodd" clip-rule="evenodd" d="M9.706 12.5702C11.4944 12.1407 12.3271 14.3482 10.5339 14.805C8.70317 15.2708 7.7651 13.0354 9.706 12.5702ZM8.83692 21.9896L8.87142 21.9611C9.08627 22.0325 9.52141 23.4433 11.0677 23.8607C13.0855 24.4058 15.4191 23.3011 16.6356 21.4161C16.9842 20.8752 18.0724 18.9393 17.1488 18.5564C16.3409 18.2218 16.0213 20.1021 15.5105 20.8673C14.9622 21.6883 14.0108 22.3247 13.0588 22.5486C9.81494 23.312 9.46815 20.5098 9.49781 18.0355C11.1155 17.5509 12.8664 15.4626 12.7599 13.6985C12.6279 11.5145 9.58375 10.8418 7.84923 11.1836C5.56276 11.6349 4.27065 13.1885 5.44656 15.5013C6.77196 18.1051 8.21114 17.5957 8.2765 18.3531C8.51253 21.0755 6.91963 24.0985 3.55408 22.087C2.74371 21.6024 2.18995 20.8891 1.78628 20.0422C1.63619 19.7276 1.40318 18.822 1.27064 18.6798C0.889967 18.2739 0.213347 18.5842 0.235135 19.2013C0.292629 20.8304 2.08101 22.917 3.54864 23.5226C5.57002 24.3574 7.82441 24.1578 8.83692 21.9902V21.9896ZM12.6776 9.56837C12.2122 8.48729 11.7619 7.41166 12.4845 6.25072C13.1502 5.18175 14.4254 5.14363 15.3683 5.87746C17.3425 7.41226 17.3401 11.2278 14.8478 11.0614C16.2138 10.6174 16.6247 9.17756 15.982 7.91681L14.5095 9.03237L14.9991 7.137C13.264 6.70626 12.637 8.0989 12.6776 9.56776V9.56837ZM13.4462 4.12789C8.92528 5.04744 11.0362 13.1232 15.4821 12.3349C19.9848 11.5363 17.9192 3.21802 13.4462 4.12789ZM3.72778 8.87447L2.30796 7.7698C1.89098 8.20719 1.85527 9.03902 2.02957 9.59741C2.23716 10.2623 2.50163 10.4407 3.01606 10.8031C0.505662 10.5956 0.871206 7.36023 2.32188 5.86657C3.06629 5.10068 4.26459 4.80183 5.14698 5.5417C6.09534 6.33542 5.86536 7.6724 5.62328 8.70266C5.22687 8.04324 5.32613 7.21444 4.126 6.96338C2.79031 6.68449 3.38765 7.22835 3.72778 8.87447ZM3.51293 3.85384C-1.18347 4.63062 -1.1635 12.8376 3.52806 12.0754C8.20751 11.3143 8.18633 3.0813 3.51293 3.85384ZM12.0209 0.0280265C11.3467 0.136921 11.2511 0.931243 11.6838 1.21921C12.1226 1.5108 13.2319 0.89555 14.3994 2.63241C14.6862 3.05952 14.8073 3.73345 15.3949 3.66025C17.0066 3.4594 14.4472 -0.362783 12.0209 0.0280265ZM4.38443 0.0425457C3.3471 0.191973 2.49618 0.836263 1.89582 1.66991C0.431222 3.70805 1.89885 4.00508 2.31402 3.38923C2.88109 2.54832 3.18007 1.6197 4.36203 1.35956C4.85225 1.25188 5.74311 1.50838 5.69954 0.639649C5.66322 -0.0754229 4.90248 -0.0318653 4.38382 0.0431507L4.38443 0.0425457Z" fill="#222327"/>
</svg>
