<svg width="28" height="22" viewBox="0 0 28 22" fill="none" xmlns="http://www.w3.org/2000/svg">
<path fill-rule="evenodd" clip-rule="evenodd" d="M27.1628 10.3528L23.0939 4.09757C22.9014 3.80162 22.5739 3.62335 22.2227 3.62335H17.1609V1.38324C17.1609 0.8034 16.6946 0.333374 16.1192 0.333374H1.70835C1.13304 0.333374 0.666687 0.8034 0.666687 1.38324V18.5171C0.666687 19.0969 1.13304 19.567 1.70835 19.567H5.01252C5.44252 20.7889 6.60039 21.6667 7.95835 21.6667C9.31632 21.6667 10.4741 20.7889 10.9042 19.567H18.2598C18.6898 20.7889 19.8476 21.6667 21.2056 21.6667C22.5636 21.6667 23.7214 20.7889 24.1514 19.567H26.2917C26.867 19.567 27.3334 19.0969 27.3334 18.5171V10.9285C27.3334 10.724 27.2741 10.5239 27.1628 10.3528ZM7.9584 19.5669C7.38402 19.5669 6.91673 19.0959 6.91673 18.517C6.91673 17.9381 7.38402 17.4671 7.9584 17.4671C8.53277 17.4671 9.00006 17.9381 9.00006 18.517C9.00006 19.0959 8.53277 19.5669 7.9584 19.5669ZM15.0776 17.4672H10.9042C10.4742 16.2453 9.31631 15.3675 7.95834 15.3675C6.60037 15.3675 5.44256 16.2453 5.01251 17.4672H2.75006V2.43311H15.0776V17.4672ZM21.2056 19.5669C20.6313 19.5669 20.164 19.0959 20.164 18.517C20.164 17.9381 20.6313 17.4671 21.2056 17.4671C21.78 17.4671 22.2473 17.9381 22.2473 18.517C22.2473 19.0959 21.78 19.5669 21.2056 19.5669ZM25.25 17.4671H24.1514C23.7214 16.2452 22.5635 15.3674 21.2056 15.3674C19.8476 15.3674 18.6898 16.2452 18.2597 17.4671H17.1609V5.72298H21.66L25.25 11.2419V17.4671Z" fill="#7B8E98"/>
</svg>
